<mxfile host="app.diagrams.net" modified="2020-06-10T01:53:21.957Z" agent="5.0 (Windows NT 10.0; WOW64) AppleWebKit/537.36 (KHTML, like Gecko) Chrome/81.0.4044.138 Safari/537.36" etag="ZCx7o-dp2AEAPe47Vz4w" version="13.2.1" type="github">
  <diagram id="exqhPLrJmdU4n0ki0u2G" name="第 1 页">
    <mxGraphModel dx="981" dy="526" grid="1" gridSize="10" guides="1" tooltips="1" connect="1" arrows="1" fold="1" page="1" pageScale="1" pageWidth="827" pageHeight="1169" math="0" shadow="0">
      <root>
        <mxCell id="0" />
        <mxCell id="1" parent="0" />
        <mxCell id="yhO3mHSMQ-c0iJVhlPVC-1" value="" style="edgeStyle=orthogonalEdgeStyle;rounded=0;orthogonalLoop=1;jettySize=auto;html=1;" parent="1" target="yhO3mHSMQ-c0iJVhlPVC-7" edge="1">
          <mxGeometry relative="1" as="geometry">
            <mxPoint x="400" y="110" as="sourcePoint" />
          </mxGeometry>
        </mxCell>
        <mxCell id="yhO3mHSMQ-c0iJVhlPVC-2" style="edgeStyle=orthogonalEdgeStyle;rounded=0;orthogonalLoop=1;jettySize=auto;html=1;entryX=0.5;entryY=0;entryDx=0;entryDy=0;" parent="1" source="yhO3mHSMQ-c0iJVhlPVC-6" target="yhO3mHSMQ-c0iJVhlPVC-8" edge="1">
          <mxGeometry relative="1" as="geometry">
            <Array as="points">
              <mxPoint x="400" y="110" />
              <mxPoint x="300" y="110" />
            </Array>
          </mxGeometry>
        </mxCell>
        <mxCell id="yhO3mHSMQ-c0iJVhlPVC-3" style="edgeStyle=orthogonalEdgeStyle;rounded=0;orthogonalLoop=1;jettySize=auto;html=1;entryX=0.5;entryY=0;entryDx=0;entryDy=0;" parent="1" source="yhO3mHSMQ-c0iJVhlPVC-6" target="yhO3mHSMQ-c0iJVhlPVC-11" edge="1">
          <mxGeometry relative="1" as="geometry" />
        </mxCell>
        <mxCell id="yhO3mHSMQ-c0iJVhlPVC-4" style="edgeStyle=orthogonalEdgeStyle;rounded=0;orthogonalLoop=1;jettySize=auto;html=1;entryX=0.5;entryY=0;entryDx=0;entryDy=0;" parent="1" source="yhO3mHSMQ-c0iJVhlPVC-6" target="yhO3mHSMQ-c0iJVhlPVC-9" edge="1">
          <mxGeometry relative="1" as="geometry">
            <Array as="points">
              <mxPoint x="400" y="110" />
              <mxPoint x="500" y="110" />
            </Array>
          </mxGeometry>
        </mxCell>
        <mxCell id="yhO3mHSMQ-c0iJVhlPVC-5" style="edgeStyle=orthogonalEdgeStyle;rounded=0;orthogonalLoop=1;jettySize=auto;html=1;entryX=0.5;entryY=0;entryDx=0;entryDy=0;" parent="1" target="yhO3mHSMQ-c0iJVhlPVC-10" edge="1">
          <mxGeometry relative="1" as="geometry">
            <mxPoint x="420" y="110" as="sourcePoint" />
          </mxGeometry>
        </mxCell>
        <mxCell id="yhO3mHSMQ-c0iJVhlPVC-6" value="系统功能模块结构" style="rounded=0;whiteSpace=wrap;html=1;" parent="1" vertex="1">
          <mxGeometry x="330" y="50" width="140" height="40" as="geometry" />
        </mxCell>
        <mxCell id="2Yh8PHdGvWM2DxdbmKz8-3" value="" style="edgeStyle=orthogonalEdgeStyle;rounded=0;orthogonalLoop=1;jettySize=auto;html=1;exitX=0;exitY=0.5;exitDx=0;exitDy=0;" edge="1" parent="1" source="yhO3mHSMQ-c0iJVhlPVC-7" target="2Yh8PHdGvWM2DxdbmKz8-2">
          <mxGeometry relative="1" as="geometry">
            <mxPoint x="160" y="130" as="sourcePoint" />
            <Array as="points">
              <mxPoint x="130" y="160" />
              <mxPoint x="130" y="230" />
            </Array>
          </mxGeometry>
        </mxCell>
        <mxCell id="2Yh8PHdGvWM2DxdbmKz8-12" style="edgeStyle=orthogonalEdgeStyle;rounded=0;orthogonalLoop=1;jettySize=auto;html=1;entryX=0;entryY=0.5;entryDx=0;entryDy=0;exitX=0;exitY=0.5;exitDx=0;exitDy=0;" edge="1" parent="1" source="yhO3mHSMQ-c0iJVhlPVC-7" target="2Yh8PHdGvWM2DxdbmKz8-8">
          <mxGeometry relative="1" as="geometry">
            <mxPoint x="160" y="130" as="sourcePoint" />
            <Array as="points">
              <mxPoint x="130" y="160" />
              <mxPoint x="130" y="300" />
            </Array>
          </mxGeometry>
        </mxCell>
        <mxCell id="2Yh8PHdGvWM2DxdbmKz8-14" style="edgeStyle=orthogonalEdgeStyle;rounded=0;orthogonalLoop=1;jettySize=auto;html=1;entryX=0;entryY=0.5;entryDx=0;entryDy=0;exitX=0;exitY=0.5;exitDx=0;exitDy=0;" edge="1" parent="1" source="yhO3mHSMQ-c0iJVhlPVC-7" target="2Yh8PHdGvWM2DxdbmKz8-9">
          <mxGeometry relative="1" as="geometry">
            <mxPoint x="160" y="130" as="sourcePoint" />
            <Array as="points">
              <mxPoint x="130" y="160" />
              <mxPoint x="130" y="370" />
            </Array>
          </mxGeometry>
        </mxCell>
        <mxCell id="2Yh8PHdGvWM2DxdbmKz8-15" style="edgeStyle=orthogonalEdgeStyle;rounded=0;orthogonalLoop=1;jettySize=auto;html=1;exitX=0;exitY=0.5;exitDx=0;exitDy=0;" edge="1" parent="1" source="yhO3mHSMQ-c0iJVhlPVC-7" target="2Yh8PHdGvWM2DxdbmKz8-11">
          <mxGeometry relative="1" as="geometry">
            <mxPoint x="160" y="130" as="sourcePoint" />
            <Array as="points">
              <mxPoint x="130" y="160" />
              <mxPoint x="130" y="440" />
            </Array>
          </mxGeometry>
        </mxCell>
        <mxCell id="yhO3mHSMQ-c0iJVhlPVC-7" value="文件" style="rounded=0;whiteSpace=wrap;html=1;" parent="1" vertex="1">
          <mxGeometry x="160" y="140" width="80" height="40" as="geometry" />
        </mxCell>
        <mxCell id="2Yh8PHdGvWM2DxdbmKz8-2" value="数据加载" style="rounded=0;whiteSpace=wrap;html=1;" vertex="1" parent="1">
          <mxGeometry x="160" y="210" width="80" height="40" as="geometry" />
        </mxCell>
        <mxCell id="yhO3mHSMQ-c0iJVhlPVC-8" value="编辑" style="rounded=0;whiteSpace=wrap;html=1;" parent="1" vertex="1">
          <mxGeometry x="260" y="140" width="80" height="40" as="geometry" />
        </mxCell>
        <mxCell id="yhO3mHSMQ-c0iJVhlPVC-9" value="查询" style="rounded=0;whiteSpace=wrap;html=1;" parent="1" vertex="1">
          <mxGeometry x="460" y="140" width="80" height="40" as="geometry" />
        </mxCell>
        <mxCell id="yhO3mHSMQ-c0iJVhlPVC-10" value="统计" style="rounded=0;whiteSpace=wrap;html=1;" parent="1" vertex="1">
          <mxGeometry x="560" y="140" width="80" height="40" as="geometry" />
        </mxCell>
        <mxCell id="yhO3mHSMQ-c0iJVhlPVC-11" value="筛选" style="rounded=0;whiteSpace=wrap;html=1;" parent="1" vertex="1">
          <mxGeometry x="360" y="140" width="80" height="40" as="geometry" />
        </mxCell>
        <mxCell id="2Yh8PHdGvWM2DxdbmKz8-8" value="数据保存" style="rounded=0;whiteSpace=wrap;html=1;" vertex="1" parent="1">
          <mxGeometry x="160" y="280" width="80" height="40" as="geometry" />
        </mxCell>
        <mxCell id="2Yh8PHdGvWM2DxdbmKz8-9" value="数据导出" style="rounded=0;whiteSpace=wrap;html=1;" vertex="1" parent="1">
          <mxGeometry x="160" y="350" width="80" height="40" as="geometry" />
        </mxCell>
        <mxCell id="2Yh8PHdGvWM2DxdbmKz8-11" value="统计结果导出" style="rounded=0;whiteSpace=wrap;html=1;" vertex="1" parent="1">
          <mxGeometry x="160" y="420" width="80" height="40" as="geometry" />
        </mxCell>
      </root>
    </mxGraphModel>
  </diagram>
</mxfile>
